<svg xmlns="http://www.w3.org/2000/svg" version="1.1" xmlns:xlink="http://www.w3.org/1999/xlink" xmlns:svgjs="http://svgjs.com/svgjs" width="512" height="512" x="0" y="0" viewBox="0 0 512 512" style="enable-background:new 0 0 512 512" xml:space="preserve" class=""><g><path d="M512 175.839a7.5 7.5 0 0 0-7.5-7.5h-56.629v-25.081H504.5a7.5 7.5 0 0 0 0-15h-56.629v-1.892a23.378 23.378 0 0 0-6.893-16.64L402.272 71.02a23.378 23.378 0 0 0-16.64-6.893h-1.892V7.5a7.5 7.5 0 0 0-15 0v56.629h-25.081V7.5a7.5 7.5 0 0 0-15 0v56.629h-25.081V7.5a7.5 7.5 0 0 0-15 0v56.629H263.5V7.5a7.5 7.5 0 0 0-15 0v56.629h-25.081V7.5a7.5 7.5 0 0 0-15 0v56.629h-25.081V7.5a7.5 7.5 0 0 0-15 0v56.629h-25.081V7.5a7.5 7.5 0 0 0-15 0v56.629h-1.892a23.378 23.378 0 0 0-16.64 6.893l-38.706 38.706a23.378 23.378 0 0 0-6.893 16.64v1.892H7.5a7.5 7.5 0 0 0 0 15h56.629v25.081H7.5a7.5 7.5 0 0 0 0 15h56.629v25.081H7.5a7.5 7.5 0 0 0 0 15h56.629V248.5H7.5a7.5 7.5 0 0 0 0 15h56.629v25.081H7.5a7.5 7.5 0 0 0 0 15h56.629v25.081H7.5a7.5 7.5 0 0 0 0 15h56.629v25.081H7.5a7.5 7.5 0 0 0 0 15h56.629v1.892a23.378 23.378 0 0 0 6.893 16.64l38.706 38.706a23.378 23.378 0 0 0 16.64 6.893h1.892V504.5a7.5 7.5 0 0 0 15 0v-56.629h25.081V504.5a7.5 7.5 0 0 0 15 0v-56.629h25.081V504.5a7.5 7.5 0 0 0 15 0v-56.629H248.5V504.5a7.5 7.5 0 0 0 15 0v-56.629h25.081V504.5a7.5 7.5 0 0 0 15 0v-56.629h25.081V504.5a7.5 7.5 0 0 0 15 0v-56.629h25.081V504.5a7.5 7.5 0 0 0 15 0v-56.629h1.892a23.378 23.378 0 0 0 16.64-6.893l38.706-38.706a23.378 23.378 0 0 0 6.893-16.64v-1.892H504.5a7.5 7.5 0 0 0 0-15h-56.629v-25.081H504.5a7.5 7.5 0 0 0 0-15h-56.629v-25.081H504.5a7.5 7.5 0 0 0 0-15h-56.629V263.5H504.5a7.5 7.5 0 0 0 0-15h-56.629v-25.081H504.5a7.5 7.5 0 0 0 0-15h-56.629v-25.081H504.5v.001a7.5 7.5 0 0 0 7.5-7.5zm-79.128 209.794a8.484 8.484 0 0 1-2.5 6.033l-38.706 38.706a8.479 8.479 0 0 1-6.033 2.499H126.367a8.479 8.479 0 0 1-6.033-2.499l-38.706-38.706a8.479 8.479 0 0 1-2.499-6.033V126.367c0-2.279.888-4.421 2.499-6.033l38.706-38.706a8.479 8.479 0 0 1 6.033-2.499h259.267c2.279 0 4.421.888 6.033 2.499l38.706 38.706a8.479 8.479 0 0 1 2.499 6.033v259.266z" fill="#FFFFFF" data-original="#000000" class="" opacity="1"></path><path d="M368.226 120.242a7.5 7.5 0 0 0 0 15c4.705 0 8.532 3.828 8.532 8.532v24.564h-56.629a.516.516 0 0 1-.516-.516v-32.581h16.548a7.5 7.5 0 0 0 0-15H143.774c-12.976 0-23.532 10.557-23.532 23.532v224.451c0 12.976 10.557 23.533 23.532 23.533a7.5 7.5 0 0 0 0-15c-4.705 0-8.532-3.828-8.532-8.533v-224.45c0-4.705 3.828-8.532 8.532-8.532h120.758v9.907a8.481 8.481 0 0 1-2.499 6.034l-22.672 22.672a8.478 8.478 0 0 1-6.034 2.5h-19.156c-3.139-9.308-11.946-16.032-22.3-16.032-12.976 0-23.532 10.557-23.532 23.532s10.557 23.532 23.532 23.532c10.353 0 19.16-6.724 22.3-16.032h19.156c6.285 0 12.194-2.448 16.64-6.893l22.673-22.673a23.378 23.378 0 0 0 6.893-16.64v-9.907h25.081v32.581c0 8.556 6.96 15.516 15.516 15.516h56.629v25.081h-74.41c-3.139-9.308-11.946-16.032-22.3-16.032-12.976 0-23.532 10.557-23.532 23.532s10.557 23.532 23.532 23.532c10.353 0 19.16-6.724 22.3-16.032h74.41v25.08H326.77a23.378 23.378 0 0 0-16.64 6.893l-22.673 22.673a8.479 8.479 0 0 1-6.033 2.499h-27.173c-3.139-9.308-11.946-16.032-22.3-16.032-12.976 0-23.532 10.557-23.532 23.532s10.557 23.532 23.532 23.532c10.353 0 19.16-6.724 22.3-16.032h27.173a23.378 23.378 0 0 0 16.64-6.893l22.673-22.673a8.48 8.48 0 0 1 6.034-2.499h49.988v25.081h-33.956a23.378 23.378 0 0 0-16.64 6.893l-46.721 46.721a23.376 23.376 0 0 0-6.893 16.64v17.924h-41.113v-17.924a23.376 23.376 0 0 0-6.893-16.64l-38.706-38.706a8.476 8.476 0 0 1-2.499-6.033v-27.173c9.308-3.139 16.032-11.946 16.032-22.3 0-12.976-10.557-23.532-23.532-23.532s-23.532 10.557-23.532 23.532c0 10.354 6.724 19.16 16.032 22.3v27.173a23.376 23.376 0 0 0 6.893 16.64l38.706 38.706a8.476 8.476 0 0 1 2.499 6.033v17.924h-40.6a7.5 7.5 0 0 0 0 15h192.39c12.976 0 23.532-10.557 23.532-23.533V143.774c0-12.975-10.557-23.532-23.532-23.532zm-176.355 72.145c-4.705 0-8.532-3.828-8.532-8.532s3.828-8.532 8.532-8.532c4.704 0 8.532 3.828 8.532 8.532s-3.827 8.532-8.532 8.532zm88.177 32.065c-4.705 0-8.532-3.828-8.532-8.532s3.828-8.532 8.532-8.532c4.704 0 8.532 3.828 8.532 8.532s-3.827 8.532-8.532 8.532zm-48.096 72.145c-4.705 0-8.532-3.828-8.532-8.532 0-4.704 3.828-8.532 8.532-8.532 4.704 0 8.532 3.828 8.532 8.532 0 4.704-3.828 8.532-8.532 8.532zm-56.113-40.081c-4.704 0-8.532-3.828-8.532-8.532 0-4.704 3.827-8.532 8.532-8.532s8.532 3.828 8.532 8.532c0 4.704-3.828 8.532-8.532 8.532zm200.92 111.709c-.001 4.706-3.829 8.533-8.533 8.533h-80.677v-17.924c0-2.279.887-4.422 2.499-6.033l46.721-46.722a8.48 8.48 0 0 1 6.034-2.499h33.956v64.645z" fill="#FFFFFF" data-original="#000000" class="" opacity="1"></path></g></svg>