<svg xmlns="http://www.w3.org/2000/svg" version="1.1" xmlns:xlink="http://www.w3.org/1999/xlink" xmlns:svgjs="http://svgjs.com/svgjs" width="512" height="512" x="0" y="0" viewBox="0 0 96 96" style="enable-background:new 0 0 512 512" xml:space="preserve"><g><path d="M57.983 38.329H38.017v19.967h19.966zm-1.958 18.009h-16.05v-16.05h16.05v16.05z" fill="#FFFFFF" data-original="#000000" opacity="1"></path><path d="M4.36 61.424c1.507 0 2.77-1.004 3.194-2.373h5.37l5.332-7.247h14.047v3.765h-7.715l-5.33 6.584v5.849c-1.375.421-2.384 1.687-2.384 3.198a3.364 3.364 0 0 0 3.36 3.36 3.364 3.364 0 0 0 3.36-3.36c0-1.51-1.007-2.774-2.379-3.197v-5.157l4.307-5.32h6.78v3.228a3.254 3.254 0 0 0 2.477 3.15v14.988l-8.186 8.186a3.32 3.32 0 0 0-1.48-.359c-1.853 0-3.36 1.507-3.36 3.36s1.507 3.36 3.36 3.36 3.36-1.508 3.36-3.36a3.32 3.32 0 0 0-.455-1.657l8.72-8.72V64.01h5.173v10.32c-1.373.423-2.38 1.688-2.38 3.198 0 1.853 1.507 3.36 3.36 3.36s3.36-1.507 3.36-3.36c0-1.51-1.008-2.775-2.381-3.198V64.01h5.66v14.727l7.246 5.332v4.373c-1.375.422-2.384 1.688-2.384 3.2 0 1.852 1.507 3.359 3.36 3.359s3.36-1.507 3.36-3.36c0-1.508-1.006-2.773-2.377-3.196v-5.367l-7.247-5.332V64.01h3.764v7.403l6.584 5.33h5.853c.422 1.375 1.688 2.383 3.198 2.383 1.853 0 3.36-1.507 3.36-3.36s-1.507-3.36-3.36-3.36c-1.509 0-2.774 1.007-3.196 2.379H62.53l-5.32-4.306v-6.47h3.231a3.26 3.26 0 0 0 3.256-3.255v-1.437H78.89l8.187 8.187a3.319 3.319 0 0 0-.358 1.479c0 1.853 1.507 3.36 3.36 3.36s3.36-1.507 3.36-3.36-1.508-3.36-3.36-3.36a3.32 3.32 0 0 0-1.658.456l-8.72-8.72H63.696v-5.174H74.33c.422 1.373 1.687 2.38 3.197 2.38 1.853 0 3.36-1.507 3.36-3.36s-1.507-3.36-3.36-3.36c-1.51 0-2.775 1.008-3.198 2.382H63.697v-5.66h15.036l5.333-7.247h4.376c.421 1.375 1.688 2.383 3.198 2.383 1.853 0 3.36-1.507 3.36-3.36s-1.507-3.359-3.36-3.359c-1.508 0-2.773 1.006-3.196 2.378h-5.368l-5.333 7.246H63.697v-3.764h7.714l5.33-6.584v-5.853c1.376-.421 2.385-1.688 2.385-3.199 0-1.852-1.507-3.36-3.36-3.36s-3.36 1.508-3.36 3.36c0 1.509 1.006 2.773 2.377 3.196v5.163l-4.306 5.319h-6.78V35.87a3.26 3.26 0 0 0-3.256-3.255h-2.593V17.11l8.189-8.188c.448.222.946.358 1.479.358 1.853 0 3.36-1.507 3.36-3.36s-1.508-3.36-3.36-3.36a3.364 3.364 0 0 0-3.36 3.36c0 .606.174 1.167.455 1.658l-8.72 8.721v16.316h-5.175V21.67c1.374-.422 2.382-1.688 2.382-3.198 0-1.853-1.507-3.36-3.36-3.36s-3.36 1.507-3.36 3.36c0 1.51 1.007 2.774 2.38 3.197v10.945h-5.66V17.267l-7.246-5.333V7.56c1.375-.421 2.385-1.688 2.385-3.2A3.364 3.364 0 0 0 34.877 1a3.363 3.363 0 0 0-3.36 3.36c0 1.508 1.005 2.772 2.376 3.196v5.37l7.247 5.332v14.358h-3.765V24.59l-6.584-5.33H24.94c-.421-1.376-1.687-2.386-3.199-2.386-1.852 0-3.36 1.507-3.36 3.36s1.508 3.36 3.36 3.36c1.509 0 2.773-1.006 3.196-2.376h5.16l5.32 4.306v7.106a3.249 3.249 0 0 0-3.01 2.465H17.109L8.92 26.907c.223-.449.36-.947.36-1.482 0-1.852-1.508-3.36-3.36-3.36s-3.36 1.508-3.36 3.36 1.507 3.36 3.36 3.36a3.32 3.32 0 0 0 1.655-.454l8.722 8.722h16.005v5.175H21.67c-.421-1.375-1.687-2.385-3.198-2.385-1.853 0-3.36 1.508-3.36 3.36s1.507 3.36 3.36 3.36c1.509 0 2.773-1.006 3.196-2.377h10.634v5.66H17.265l-5.333 7.246H7.56c-.42-1.376-1.687-2.387-3.2-2.387-1.852 0-3.359 1.507-3.359 3.36s1.507 3.359 3.36 3.359zM21.635 71.2c0 .773-.629 1.402-1.401 1.402a1.403 1.403 0 0 1-1.402-1.402c0-.773.629-1.401 1.402-1.401.773 0 1.401.628 1.401 1.4zm3.477 20.28a1.403 1.403 0 0 1-1.4-1.401c0-.773.628-1.401 1.4-1.401.774 0 1.402.628 1.402 1.4 0 .774-.628 1.403-1.401 1.403zm19.18-13.953c0 .773-.629 1.401-1.401 1.401s-1.402-.628-1.402-1.4a1.403 1.403 0 0 1 2.803 0zM59.153 91.64c0 .773-.628 1.402-1.401 1.402a1.403 1.403 0 0 1-1.402-1.402c0-.773.629-1.401 1.401-1.401.774 0 1.402.628 1.402 1.401zm11.735-17.275c.772 0 1.4.629 1.4 1.401s-.628 1.402-1.4 1.402c-.774 0-1.402-.63-1.402-1.402s.628-1.401 1.402-1.401zm19.19-6.783c.774 0 1.403.628 1.403 1.4s-.63 1.402-1.402 1.402c-.773 0-1.401-.629-1.401-1.401s.628-1.401 1.4-1.401zM77.528 49.804c.773 0 1.401.628 1.401 1.401s-.628 1.402-1.401 1.402a1.403 1.403 0 0 1-1.402-1.402c0-.773.629-1.401 1.402-1.401zM91.64 34.942c.773 0 1.402.63 1.402 1.402s-.63 1.401-1.402 1.401c-.773 0-1.402-.629-1.402-1.401s.63-1.402 1.402-1.402zM74.365 23.208c0-.772.629-1.401 1.401-1.401s1.401.629 1.401 1.401-.628 1.402-1.4 1.402-1.402-.63-1.402-1.402zM67.515 4.52c.774 0 1.403.63 1.403 1.402 0 .773-.629 1.402-1.402 1.402a1.403 1.403 0 0 1-1.401-1.402c0-.773.628-1.402 1.4-1.402zM48.338 18.473c0-.773.628-1.401 1.401-1.401s1.402.628 1.402 1.401-.629 1.402-1.402 1.402a1.403 1.403 0 0 1-1.401-1.402zM33.476 4.36c0-.773.628-1.402 1.4-1.402.774 0 1.403.63 1.403 1.402 0 .773-.63 1.402-1.402 1.402a1.403 1.403 0 0 1-1.401-1.402zM21.74 21.635c-.772 0-1.401-.628-1.401-1.401s.629-1.401 1.401-1.401 1.402.628 1.402 1.4-.63 1.402-1.402 1.402zm-15.82 5.192c-.773 0-1.402-.63-1.402-1.402s.63-1.401 1.402-1.401c.773 0 1.402.629 1.402 1.401s-.63 1.402-1.402 1.402zm12.552 17.777a1.403 1.403 0 0 1-1.401-1.4c0-.774.628-1.403 1.401-1.403s1.401.63 1.401 1.402c0 .773-.628 1.401-1.401 1.401zm15.788-8.733c0-.715.582-1.297 1.298-1.297H60.44c.716 0 1.297.582 1.297 1.297v24.883c0 .715-.581 1.297-1.297 1.297H35.56a1.299 1.299 0 0 1-1.298-1.297zM4.36 56.663c.772 0 1.401.629 1.401 1.401s-.629 1.402-1.401 1.402-1.402-.63-1.402-1.402.629-1.401 1.402-1.401z" fill="#FFFFFF" data-original="#000000" opacity="1"></path></g></svg>