<svg xmlns="http://www.w3.org/2000/svg" version="1.1" xmlns:xlink="http://www.w3.org/1999/xlink" xmlns:svgjs="http://svgjs.com/svgjs" width="512" height="512" x="0" y="0" viewBox="0 0 183.652 183.652" style="enable-background:new 0 0 512 512" xml:space="preserve"><g><path d="M37.565 82.477a53.718 53.718 0 0 0 15.318 38.567 51.341 51.341 0 0 1 13.899 36.397v5.343c0 11.526 9.344 20.87 20.87 20.87H96c11.526 0 20.87-9.344 20.87-20.87v-6.845a49.257 49.257 0 0 1 13.649-34.477c21.003-21.376 20.7-55.731-.676-76.733a54.26 54.26 0 0 0-40.27-15.51c-28.557 1.507-51.178 24.673-52.008 53.258zm53.677 59.436L84.188 96h15.277l-7.054 45.913zm17.53 8.348c0 1.878-.25 3.757-.25 5.677v2.671H75.13v-1.169a68.329 68.329 0 0 0-.417-7.179zM96 175.304h-8.348a12.52 12.52 0 0 1-11.77-8.348h31.889A12.523 12.523 0 0 1 96 175.304zM89.906 37.565h1.92c25.357.013 45.903 20.579 45.89 45.936a45.913 45.913 0 0 1-13.125 32.116 55.094 55.094 0 0 0-14.358 26.296h-9.35L107.937 96h4.758a4.174 4.174 0 0 0 0-8.348H70.957a4.174 4.174 0 0 0 0 8.348h4.758l7.054 45.913h-9.517a57.178 57.178 0 0 0-14.358-26.504 45.458 45.458 0 0 1-12.981-32.765c.684-24.192 19.826-43.806 43.993-45.079zM96 20.87V4.174a4.174 4.174 0 0 0-8.348 0V20.87a4.174 4.174 0 0 0 8.348 0zM155.645 22.08 138.95 38.776a4.173 4.173 0 0 0-.024 5.903l.024.024a4.173 4.173 0 0 0 5.903.024l.024-.024 16.696-16.696a4.19 4.19 0 1 0-5.928-5.927zM28.007 22.08a4.19 4.19 0 1 0-5.927 5.927l16.696 16.696a4.173 4.173 0 0 0 5.903.024l.024-.024a4.173 4.173 0 0 0 .024-5.903l-.024-.024zM150.261 91.826A4.174 4.174 0 0 0 154.435 96h16.696a4.174 4.174 0 0 0 0-8.348h-16.696a4.174 4.174 0 0 0-4.174 4.174zM8.348 91.826A4.174 4.174 0 0 0 12.522 96h16.696a4.174 4.174 0 0 0 0-8.348H12.522a4.174 4.174 0 0 0-4.174 4.174z" fill="#FFFFFF" data-original="#000000" opacity="1"></path></g></svg>