<svg xmlns="http://www.w3.org/2000/svg" version="1.1" xmlns:xlink="http://www.w3.org/1999/xlink" xmlns:svgjs="http://svgjs.com/svgjs" width="512" height="512" x="0" y="0" viewBox="0 0 512 512" style="enable-background:new 0 0 512 512" xml:space="preserve" class=""><g><path d="m139.983 445.016-31.719-16.17c-7.974-4.059-13.036-12.477-13.036-21.676v-40.064M256.003 349.775v151.62c-3.529 0-7.058-.829-10.308-2.488L172 461.338" style="stroke-linecap: round; stroke-linejoin: round; stroke-miterlimit: 10;" fill="none" stroke="#FFFFFF" stroke-width="15px" stroke-linecap="round" stroke-linejoin="round" stroke-miterlimit="10" data-original="#000000" class="" opacity="1"></path><path d="m416.764 367.104-.003 40.067c0 9.202-5.048 17.614-13.028 21.675L266.308 498.91A22.648 22.648 0 0 1 256 501.398V349.777M95.228 267.816l-83.344 42.491c-5.846 2.98-5.846 11.332 0 14.313l136.524 69.599a22.481 22.481 0 0 0 20.421 0L256 349.777 95.228 267.816z" style="stroke-linecap: round; stroke-linejoin: round; stroke-miterlimit: 10;" fill="none" stroke="#FFFFFF" stroke-width="15px" stroke-linecap="round" stroke-linejoin="round" stroke-miterlimit="10" data-original="#000000" class="" opacity="1"></path><path d="m416.772 267.816 83.344 42.491c5.846 2.98 5.846 11.332 0 14.313l-136.524 69.599a22.481 22.481 0 0 1-20.421 0L256 349.777l160.772-81.961z" style="stroke-linecap: round; stroke-linejoin: round; stroke-miterlimit: 10;" fill="none" stroke="#FFFFFF" stroke-width="15px" stroke-linecap="round" stroke-linejoin="round" stroke-miterlimit="10" data-original="#000000" class="" opacity="1"></path><path d="m340.924 229.139 12.92 6.587 62.93 32.09-62.93 32.08-97.84 49.88-97.84-49.88-62.94-32.08 62.94-32.09 44.71-22.793" style="stroke-linecap: round; stroke-linejoin: round; stroke-miterlimit: 10;" fill="none" stroke="#FFFFFF" stroke-width="15px" stroke-linecap="round" stroke-linejoin="round" stroke-miterlimit="10" data-original="#000000" class="" opacity="1"></path><path d="M188.806 114.746c-6.965 11.608-11.012 25.138-11.089 39.554-.112 20.728 7.838 39.592 20.893 53.654 11.31 12.184 18.667 27.508 21.79 43.837l.51 2.667h70.189l.537-2.81c3.191-16.684 11.207-31.955 22.572-44.579 12.484-13.865 20.084-32.211 20.084-52.338 0-43.096-34.822-78.059-77.865-78.287-15.779-.084-30.55 4.596-42.938 12.679" style="stroke-linecap: round; stroke-linejoin: round; stroke-miterlimit: 10;" fill="none" stroke="#FFFFFF" stroke-width="15px" stroke-linecap="round" stroke-linejoin="round" stroke-miterlimit="10" data-original="#000000" class="" opacity="1"></path><path d="M291.099 254.457H220.91v19.523c0 7.23 5.861 13.091 13.091 13.091h44.007c7.23 0 13.091-5.861 13.091-13.091v-19.523zM256.004 317.071h0c-11.312 0-20.483-9.171-20.483-20.483v-9.517h40.966v9.517c0 11.312-9.17 20.483-20.483 20.483zM246.522 254.457l-22.872-92.365h64.708l-22.871 92.365M143.954 121.482l-30.77-10M186.754 62.572l-17.79-24.48M256.004 40.072v-29.47M343.044 38.082l-17.79 24.49M398.834 111.482l-30.78 10" style="stroke-linecap: round; stroke-linejoin: round; stroke-miterlimit: 10;" fill="none" stroke="#FFFFFF" stroke-width="15px" stroke-linecap="round" stroke-linejoin="round" stroke-miterlimit="10" data-original="#000000" class="" opacity="1"></path></g></svg>