<svg xmlns="http://www.w3.org/2000/svg" version="1.1" xmlns:xlink="http://www.w3.org/1999/xlink" xmlns:svgjs="http://svgjs.com/svgjs" width="512" height="512" x="0" y="0" viewBox="0 0 512 512" style="enable-background:new 0 0 512 512" xml:space="preserve" class=""><g><path fill="#4761E6" d="m86.16 158.383 109.335-31.028 24.822 87.468-109.335 31.028z" data-original="#ff7d97" class="" opacity="1"></path><path fill="#F9FAFB" d="m43.152 191.624 46.847-13.295 13.772 48.53-46.847 13.295z" data-original="#dfedff" class="" opacity="1"></path><path fill="#FFAD66" d="m171.503 228.38-43.595 12.652 23.487 39.79a21.987 21.987 0 0 0 25.062 9.939c13.788-4.002 20.104-19.929 12.806-32.292z" data-original="#ffdfe5" class="" opacity="1"></path><path fill="#F9FAFB" d="m195.511 127.318 113.491-95.844 58.269 208.666-146.924-25.357z" data-original="#dfedff" class="" opacity="1"></path><circle cx="336.262" cy="128.389" r="9.997" transform="rotate(-61.44 336.3 128.442)" fill="#000000" data-original="#000000" class=""></circle><path d="M47.32 242.877c1.252 4.409 5.267 7.286 9.634 7.285.906 0 1.827-.124 2.742-.384l38.891-11.043 2.791 9.83c1.252 4.409 5.267 7.285 9.634 7.285.906 0 1.827-.124 2.742-.384l9.456-2.685 19.558 33.133a31.994 31.994 0 0 0 27.553 15.742c2.965 0 5.97-.414 8.93-1.273 9.567-2.776 17.159-9.68 20.832-18.939 3.672-9.259 2.874-19.49-2.189-28.068l-11.021-18.671 34.135-9.693 144.788 21.579c7.073 1.058 13.068-5.769 11.115-12.647l-18.494-65.13c-1.512-5.323-7.055-8.413-12.375-6.902-5.323 1.512-8.413 7.052-6.902 12.375l14.253 50.195-125.173-18.655-21.304-75.026 96.688-81.654 11.076 39.006c1.512 5.323 7.052 8.413 12.375 6.902s8.413-7.052 6.902-12.375L318.64 28.737a10.022 10.022 0 0 0-16.103-4.918L190.696 118.27 83.442 148.725a10.02 10.02 0 0 0-6.901 12.375l2.791 9.83-38.89 11.043a10.02 10.02 0 0 0-6.901 12.375zm133.315 20.685a11.89 11.89 0 0 1 .819 10.495 11.89 11.89 0 0 1-7.79 7.082 11.964 11.964 0 0 1-13.64-5.41l-16.886-28.606 23.803-6.759zm7.975-123.869 19.363 68.189-90.055 25.571-19.363-68.188zM84.806 190.207l8.306 29.252-29.252 8.306-8.306-29.252zM431.729 117.532c.901 0 1.818-.122 2.727-.379l23.762-6.707c5.326-1.503 8.424-7.039 6.921-12.364-1.503-5.326-7.044-8.425-12.364-6.921l-23.762 6.707c-5.326 1.503-8.424 7.039-6.921 12.364 1.246 4.416 5.265 7.3 9.637 7.3zM380.745 37.729a9.991 9.991 0 0 0 7.18-3.03L405.15 17.01c3.861-3.964 3.776-10.308-.189-14.168-3.964-3.861-10.308-3.776-14.168.188l-17.225 17.689c-3.861 3.965-3.776 10.308.188 14.169a9.986 9.986 0 0 0 6.989 2.841zM427.532 211.905l23.931 6.072c5.377 1.365 10.961-2.054 12.222-7.444 1.226-5.241-2.079-10.657-7.293-11.98l-23.931-6.072c-5.36-1.361-10.815 1.884-12.176 7.248s1.884 10.815 7.247 12.176zM359.195 370.093l24.818 35.939c2.864 4.135 7.671 5.884 12.25 4.454 4.654-1.454 7.66-5.761 7.66-11.07l-.596-61.681c-.053-5.533-4.558-10-10.116-9.922-5.533.053-9.976 4.583-9.922 10.116l.312 32.241-26.181-37.912a10.02 10.02 0 0 0-18.265 5.694v63.712c0 5.534 4.486 10.02 10.02 10.02s10.02-4.486 10.02-10.02zM272.377 411.007c5.435-1.039 8.999-6.287 7.961-11.722l-11.883-62.179-.023-.12a11.47 11.47 0 0 0-10.585-9.155 11.46 11.46 0 0 0-11.653 8.251l-9.505 33.344-9.867-33.443a9.176 9.176 0 0 0-.113-.356c-1.657-4.932-6.443-8.142-11.631-7.785a11.469 11.469 0 0 0-10.488 9.268l-.022.115-11.219 62.16c-.983 5.446 2.635 10.657 8.08 11.64a10.017 10.017 0 0 0 11.64-8.08l4.788-26.528 7.995 27.099a11.44 11.44 0 0 0 10.976 8.167h.059a11.44 11.44 0 0 0 10.949-8.269l7.716-27.067 5.102 26.699c1.039 5.436 6.29 9 11.723 7.961zM300.97 337.832v63.832c0 5.534 4.486 10.02 10.02 10.02s10.02-4.486 10.02-10.02v-63.832c0-5.534-4.486-10.02-10.02-10.02s-10.02 4.487-10.02 10.02zM482.211 359.729h-19.095c-5.534 0-10.02 4.486-10.02 10.02s4.486 10.02 10.02 10.02h7.529c-2.268 6.662-7.208 11.877-15.985 11.877-12.074 0-21.896-9.822-21.896-21.896s9.822-21.896 21.896-21.896c4.389 0 8.62 1.291 12.235 3.734 4.586 3.098 10.814 1.892 13.911-2.693 3.098-4.585 1.892-10.814-2.693-13.911a41.741 41.741 0 0 0-23.454-7.168c-23.123 0-41.935 18.812-41.935 41.935s18.812 41.935 41.935 41.935c22.121 0 37.571-17.245 37.571-41.935.001-5.537-4.485-10.022-10.019-10.022zM88.248 384.976c-4.241-3.555-10.561-2.999-14.115 1.241a15.687 15.687 0 0 1-1.576 1.628c-2.831 2.522-6.482 3.8-10.852 3.8-12.074 0-21.896-9.822-21.896-21.896s9.822-21.896 21.896-21.896c4.388 0 8.619 1.291 12.235 3.734 4.587 3.099 10.814 1.891 13.911-2.693 3.098-4.586 1.892-10.814-2.693-13.911a41.738 41.738 0 0 0-23.454-7.168c-23.123 0-41.935 18.812-41.935 41.935s18.812 41.935 41.935 41.935c9.3 0 17.661-3.069 24.18-8.874a35.706 35.706 0 0 0 3.605-3.718c3.556-4.242 3-10.562-1.241-14.117zM142.51 327.813c-23.123 0-41.935 18.812-41.935 41.935s18.812 41.935 41.935 41.935 41.935-18.812 41.935-41.935c.001-23.123-18.811-41.935-41.935-41.935zm0 63.831c-12.074 0-21.896-9.822-21.896-21.896s9.822-21.896 21.896-21.896 21.896 9.822 21.896 21.896c.001 12.074-9.822 21.896-21.896 21.896zM410.381 428.13c-5.533.053-9.976 4.583-9.922 10.116l.312 32.241-26.181-37.912a10.02 10.02 0 0 0-18.265 5.694v63.712c0 5.534 4.486 10.02 10.02 10.02s10.02-4.486 10.02-10.02v-31.57l24.818 35.939c2.864 4.136 7.67 5.884 12.25 4.454 4.654-1.454 7.661-5.761 7.66-11.07l-.596-61.68c-.053-5.535-4.586-10.024-10.116-9.924zM132.696 461.168c-7.48-2.759-14.468-5.756-16.977-6.85-.682-.664-.741-1.497-.652-2.121.224-1.563 1.553-2.82 3.646-3.451 8.042-2.427 17.19 4.241 17.429 4.42 4.352 3.371 10.615 2.602 14.019-1.735 3.416-4.353 2.657-10.652-1.697-14.068-1.745-1.369-17.563-13.219-35.531-7.804-9.581 2.886-16.363 10.47-17.702 19.791-1.262 8.795 2.552 17.256 9.955 22.083a10 10 0 0 0 1.39.757c.372.166 9.222 4.105 19.184 7.78 3.725 1.374 7.537 3.781 7.067 6.416-.402 2.249-3.585 5.576-9.142 5.576-5.777 0-11.318-2.307-14.819-6.171-3.716-4.101-10.053-4.411-14.153-.696-4.1 3.716-4.412 10.053-.696 14.153 7.345 8.105 18.159 12.753 29.668 12.753 14.442 0 26.583-9.291 28.869-22.092 1.735-9.715-2.572-22.365-19.858-28.741zM208.489 428.13c-23.123 0-41.935 18.812-41.935 41.935S185.366 512 208.489 512s41.935-18.812 41.935-41.935c.001-23.123-18.811-41.935-41.935-41.935zm0 63.831c-12.073 0-21.896-9.822-21.896-21.896 0-12.073 9.822-21.896 21.896-21.896s21.896 9.822 21.896 21.896c.001 12.073-9.822 21.896-21.896 21.896zM301.896 428.13c-23.123 0-41.935 18.812-41.935 41.935S278.773 512 301.896 512s41.935-18.812 41.935-41.935-18.812-41.935-41.935-41.935zm0 63.831c-12.074 0-21.896-9.822-21.896-21.896 0-12.073 9.822-21.896 21.896-21.896s21.896 9.822 21.896 21.896c0 12.073-9.822 21.896-21.896 21.896z" fill="#000000" data-original="#000000" class=""></path></g></svg>