<svg xmlns="http://www.w3.org/2000/svg" version="1.1" xmlns:xlink="http://www.w3.org/1999/xlink" xmlns:svgjs="http://svgjs.com/svgjs" width="512" height="512" x="0" y="0" viewBox="0 0 682.667 682.667" style="enable-background:new 0 0 512 512" xml:space="preserve"><g><defs><clipPath id="a" clipPathUnits="userSpaceOnUse"><path d="M0 512h512V0H0Z" fill="#005c99" data-original="#000000" opacity="1"></path></clipPath></defs><g clip-path="url(#a)" transform="matrix(1.33333 0 0 -1.33333 0 682.667)"><path d="M0 0v-192" style="stroke-linecap: round; stroke-linejoin: round; stroke-miterlimit: 10; stroke-dasharray: none; stroke-opacity: 1;" transform="translate(442 322)" fill="none" stroke="#005C99" stroke-width="40px" stroke-linecap="round" stroke-linejoin="round" stroke-miterlimit="10" stroke-dasharray="none" stroke-opacity="" data-original="#000000" opacity="1"></path><path d="m0 0-208.389 209.763c-15.154 13.606-38.111 13.654-53.322.112L-472 0" style="stroke-linecap: round; stroke-linejoin: round; stroke-miterlimit: 10; stroke-dasharray: none; stroke-opacity: 1;" transform="translate(492 272)" fill="none" stroke="#005C99" stroke-width="40px" stroke-linecap="round" stroke-linejoin="round" stroke-miterlimit="10" stroke-dasharray="none" stroke-opacity="" data-original="#000000" opacity="1"></path><path d="M0 0v-189" style="stroke-linecap: round; stroke-linejoin: round; stroke-miterlimit: 10; stroke-dasharray: none; stroke-opacity: 1;" transform="translate(70 319)" fill="none" stroke="#005C99" stroke-width="40px" stroke-linecap="round" stroke-linejoin="round" stroke-miterlimit="10" stroke-dasharray="none" stroke-opacity="" data-original="#000000" opacity="1"></path><path d="M0 0c0 19.33 15.67 35 35 35S70 19.33 70 0 54.33-35 35-35 0-19.33 0 0" style="fill-opacity:1;fill-rule:nonzero;stroke:none" transform="translate(223 35)" fill="#005C99" data-original="#000000" opacity="1"></path><path d="M0 0c19.33 0 35-15.67 35-35S19.33-70 0-70s-35 15.67-35 35S-19.33 0 0 0" style="fill-opacity:1;fill-rule:nonzero;stroke:none" transform="translate(258 323)" fill="#005C99" data-original="#000000" opacity="1"></path><path d="M0 0c0 19.33 15.67 35 35 35S70 19.33 70 0 54.33-35 35-35 0-19.33 0 0" style="fill-opacity:1;fill-rule:nonzero;stroke:none" transform="translate(315 208)" fill="#005C99" data-original="#000000" opacity="1"></path><path d="M0 0c0 19.33 15.67 35 35 35S70 19.33 70 0 54.33-35 35-35 0-19.33 0 0" style="fill-opacity:1;fill-rule:nonzero;stroke:none" transform="translate(131 237)" fill="#005C99" data-original="#000000" opacity="1"></path><path d="M0 0v249" style="stroke-linecap: round; stroke-linejoin: round; stroke-miterlimit: 10; stroke-dasharray: none; stroke-opacity: 1;" transform="translate(258 35)" fill="none" stroke="#005C99" stroke-width="40px" stroke-linecap="round" stroke-linejoin="round" stroke-miterlimit="10" stroke-dasharray="none" stroke-opacity="" data-original="#000000" opacity="1"></path><path d="M0 0c0 19.33-15.67 35-35 35S-70 19.33-70 0s15.67-35 35-35S0-19.33 0 0" style="fill-opacity:1;fill-rule:nonzero;stroke:none" transform="translate(437 35)" fill="#005C99" data-original="#000000" opacity="1"></path><path d="m0 0-40 40v118" style="stroke-linecap: round; stroke-linejoin: round; stroke-miterlimit: 10; stroke-dasharray: none; stroke-opacity: 1;" transform="translate(390 46)" fill="none" stroke="#005C99" stroke-width="40px" stroke-linecap="round" stroke-linejoin="round" stroke-miterlimit="10" stroke-dasharray="none" stroke-opacity="" data-original="#000000" opacity="1"></path><path d="M0 0c0 19.33 15.67 35 35 35S70 19.33 70 0 54.33-35 35-35 0-19.33 0 0" style="fill-opacity:1;fill-rule:nonzero;stroke:none" transform="translate(73 35)" fill="#005C99" data-original="#000000" opacity="1"></path><path d="m0 0 40 40v139" style="stroke-linecap: round; stroke-linejoin: round; stroke-miterlimit: 10; stroke-dasharray: none; stroke-opacity: 1;" transform="translate(126 44)" fill="none" stroke="#005C99" stroke-width="40px" stroke-linecap="round" stroke-linejoin="round" stroke-miterlimit="10" stroke-dasharray="none" stroke-opacity="" data-original="#000000" opacity="1"></path></g></g></svg>