<svg xmlns="http://www.w3.org/2000/svg" version="1.1" xmlns:xlink="http://www.w3.org/1999/xlink" xmlns:svgjs="http://svgjs.com/svgjs" width="512" height="512" x="0" y="0" viewBox="0 0 64 64" style="enable-background:new 0 0 512 512" xml:space="preserve" class=""><g><path d="m35.5 23.936 1-1.731a9 9 0 0 0-12.846 4.42l1.854.75a7 7 0 0 1 9.99-3.439zM23.069 28.879a9.141 9.141 0 0 0 0 2.242l1.985-.242a7.181 7.181 0 0 1 0-1.758z" fill="#000000" data-original="#000000" class=""></path><path d="M35 59V46.719a16.887 16.887 0 0 0 4.946-1.7l1.66 1.66v5.241a1 1 0 0 0 .293.707l2.122 2.122 1.414-1.414-1.829-1.829v-5.242a1 1 0 0 0-.293-.707L41.7 43.942a17.149 17.149 0 0 0 1.576-1.253l3.575 3.575-.707.707a1 1 0 0 0 0 1.414l2.828 2.828a1 1 0 0 0 1.414 0l2.828-2.828a1 1 0 0 0 0-1.414l-2.828-2.828a1 1 0 0 0-1.414 0l-.707.707-3.575-3.575a17.149 17.149 0 0 0 1.252-1.575l1.615 1.614a1 1 0 0 0 .707.293h5.242l1.829 1.829 1.414-1.414-2.122-2.122a1 1 0 0 0-.707-.293h-5.242l-1.66-1.66A16.887 16.887 0 0 0 48.719 33H58v-2h-9.051c.02-.333.051-.662.051-1s-.031-.667-.051-1H54v-2h-5.281a16.887 16.887 0 0 0-1.7-4.946l1.66-1.66h5.241a1 1 0 0 0 .707-.293l2.122-2.122-1.414-1.414-1.829 1.829h-5.242a1 1 0 0 0-.707.293L45.942 20.3a17.149 17.149 0 0 0-1.253-1.576l3.575-3.575.707.707a1 1 0 0 0 1.414 0l2.828-2.828a1 1 0 0 0 0-1.414l-2.828-2.827a1 1 0 0 0-1.414 0l-2.828 2.828a1 1 0 0 0 0 1.414l.707.707-3.575 3.575a17.149 17.149 0 0 0-1.575-1.253l1.614-1.615a1 1 0 0 0 .293-.707V8.494l1.829-1.829-1.415-1.414L41.9 7.373a1 1 0 0 0-.293.707v5.242l-1.66 1.66A16.872 16.872 0 0 0 33 13.051V11h1a1 1 0 0 0 1-1V6a1 1 0 0 0-1-1h-4a1 1 0 0 0-1 1v4a1 1 0 0 0 1 1h1v2.051a16.872 16.872 0 0 0-6.946 1.931l-1.66-1.66V8.08a1 1 0 0 0-.293-.707l-2.122-2.122-1.414 1.414 1.829 1.829v5.242a1 1 0 0 0 .293.707l1.613 1.615a17.149 17.149 0 0 0-1.576 1.253l-3.574-3.575.707-.707a1 1 0 0 0 0-1.414l-2.828-2.828a1 1 0 0 0-1.414 0l-2.828 2.828a1 1 0 0 0 0 1.414l2.828 2.828a1 1 0 0 0 1.414 0l.707-.707 3.575 3.575a17.149 17.149 0 0 0-1.253 1.575l-1.615-1.614a1 1 0 0 0-.707-.293h-5.242l-1.829-1.828-1.414 1.414L9.373 20.1a1 1 0 0 0 .707.293h5.242l1.66 1.66A16.887 16.887 0 0 0 15.281 27H10v2h5.051c-.02.333-.051.662-.051 1s.031.667.051 1H6v2h9.281a16.887 16.887 0 0 0 1.7 4.946l-1.66 1.66H10.08a1 1 0 0 0-.707.293l-2.122 2.122 1.414 1.414 1.829-1.829h5.242a1 1 0 0 0 .707-.293l1.615-1.613a17.149 17.149 0 0 0 1.253 1.576l-3.575 3.574-.707-.707a1 1 0 0 0-1.414 0l-2.828 2.828a1 1 0 0 0 0 1.414l2.828 2.828a1 1 0 0 0 1.414 0l2.828-2.828a1 1 0 0 0 0-1.414l-.707-.707 3.575-3.575a17.149 17.149 0 0 0 1.575 1.253l-1.614 1.615a1 1 0 0 0-.293.707v5.242l-1.829 1.829 1.414 1.414 2.122-2.122a1 1 0 0 0 .293-.707v-5.242l1.66-1.66A16.887 16.887 0 0 0 29 46.719V59a3.015 3.015 0 0 0 3 3 3 3 0 0 0 3-3zm14.678-12.736 1.414 1.414-1.414 1.414-1.414-1.414zm0-35.356 1.414 1.414-1.414 1.414-1.414-1.414zM31 7h2v2h-2zm-16.678 6.736-1.414-1.414 1.414-1.414 1.414 1.414zm0 35.356-1.414-1.414 1.414-1.414 1.414 1.414zM17 30a15 15 0 1 1 15 15 15.017 15.017 0 0 1-15-15zm15 17c.338 0 .667-.031 1-.051V56h-2v-9.051c.333.02.662.051 1 .051zm-1 12v-1h2v1a1 1 0 0 1-1 1 .977.977 0 0 1-.713-.307A.959.959 0 0 1 31 59zM56.741 15.155l1.414-1.414 1.414 1.414-1.414 1.414zM45.43 3.84l1.415-1.413 1.414 1.414-1.414 1.414zM15.728 56.16l1.414-1.415 1.414 1.414-1.414 1.414zM4.418 44.845l1.414-1.414 1.414 1.414-1.414 1.414zM4.42 15.15l1.415-1.415 1.414 1.414-1.414 1.414zM15.734 3.839l1.414-1.414 1.414 1.414-1.414 1.414zM45.425 56.161l1.414-1.414 1.414 1.414-1.414 1.414zM56.738 44.852l1.414-1.414 1.414 1.414-1.414 1.414zM2 31h2v2H2z" fill="#000000" data-original="#000000" class=""></path><path d="M6 27h2v2H6zM60 31h2v2h-2zM56 27h2v2h-2zM45 30a13 13 0 1 0-13 13 13.015 13.015 0 0 0 13-13zm-24 0a11 11 0 1 1 11 11 11.013 11.013 0 0 1-11-11z" fill="#000000" data-original="#000000" class=""></path></g></svg>