<svg xmlns="http://www.w3.org/2000/svg" version="1.1" xmlns:xlink="http://www.w3.org/1999/xlink" xmlns:svgjs="http://svgjs.com/svgjs" width="512" height="512" x="0" y="0" viewBox="0 0 492 492" style="enable-background:new 0 0 512 512" xml:space="preserve"><g><path d="M246.26 352.75c-31.09 0-62.14-9.37-87.43-26.37-26.84-18.06-45.7-43.26-54.52-72.89-1.35-4.54-1.35-8.96 0-13.51 8.82-29.63 27.68-54.83 54.52-72.89 25.29-17.01 56.34-26.37 87.43-26.37s62.14 9.37 87.43 26.37c26.84 18.05 45.7 43.26 54.52 72.89 1.35 4.54 1.35 8.96 0 13.51-8.83 29.63-27.68 54.83-54.52 72.89-25.29 17.01-56.34 26.37-87.43 26.37zm0-202.02c-61.78 0-116.22 37.88-132.37 92.11-.8 2.7-.8 5.1 0 7.8 16.15 54.24 70.59 92.11 132.37 92.11s116.22-37.88 132.37-92.11c.8-2.7.8-5.1 0-7.8-16.15-54.23-70.59-92.11-132.37-92.11z" fill="#000000" data-original="#000000" opacity="1"></path><path d="M246.26 334.09c-57.98 0-109-35.33-124.07-85.93a4.94 4.94 0 0 1 0-2.85c15.07-50.59 66.09-85.93 124.07-85.93s109 35.33 124.07 85.93c.28.93.28 1.92 0 2.85-15.07 50.6-66.09 85.93-124.07 85.93zm-114.05-87.35c14.35 45.62 61.01 77.35 114.05 77.35s99.7-31.74 114.05-77.35c-14.35-45.62-61.01-77.35-114.05-77.35s-99.7 31.73-114.05 77.35z" fill="#000000" data-original="#000000" opacity="1"></path><path d="M144.22 285.5c-1.82 0-3.57-.99-4.46-2.72a5.006 5.006 0 0 1 2.17-6.73c11.06-5.66 17.94-16.89 17.94-29.31s-6.87-23.65-17.94-29.31c-2.46-1.26-3.43-4.27-2.17-6.73s4.27-3.43 6.73-2.17c14.42 7.38 23.38 22.02 23.38 38.21s-8.96 30.83-23.38 38.21c-.73.37-1.51.55-2.27.55zM348.3 285.5c-.77 0-1.54-.18-2.27-.55-14.42-7.38-23.38-22.02-23.38-38.21s8.96-30.83 23.38-38.21a5.006 5.006 0 0 1 6.73 2.17c1.26 2.46.28 5.47-2.17 6.73-11.07 5.66-17.94 16.89-17.94 29.31s6.87 23.65 17.94 29.31a4.997 4.997 0 0 1 2.17 6.73 5.005 5.005 0 0 1-4.46 2.72zM246.26 305.19c-32.23 0-58.45-26.22-58.45-58.45s26.22-58.45 58.45-58.45 58.45 26.22 58.45 58.45-26.22 58.45-58.45 58.45zm0-106.9c-26.71 0-48.45 21.73-48.45 48.45 0 26.71 21.73 48.45 48.45 48.45 26.71 0 48.45-21.73 48.45-48.45 0-26.71-21.74-48.45-48.45-48.45z" fill="#000000" data-original="#000000" opacity="1"></path><path d="M246.26 280.89c-18.83 0-34.15-15.32-34.15-34.15s15.32-34.15 34.15-34.15 34.15 15.32 34.15 34.15-15.32 34.15-34.15 34.15zm0-58.3c-13.32 0-24.15 10.83-24.15 24.15s10.83 24.15 24.15 24.15 24.15-10.83 24.15-24.15-10.83-24.15-24.15-24.15zM368.7 344.75c-.85 0-1.71-.22-2.5-.67l-34.42-19.87c-1.6-.93-2.5-2.61-2.5-4.34a5.002 5.002 0 0 1 7.5-4.32l34.42 19.87c1.6.93 2.5 2.61 2.5 4.34 0 .85-.22 1.71-.67 2.49-.92 1.6-2.6 2.5-4.33 2.5z" fill="#000000" data-original="#000000" opacity="1"></path><path d="M391.3 383.96c-5.28 0-10.63-1.34-15.52-4.17-14.88-8.59-19.99-27.68-11.4-42.55 8.59-14.88 27.68-19.99 42.55-11.4 14.88 8.59 19.99 27.68 11.4 42.55-5.76 9.99-16.26 15.57-27.03 15.57zm.09-52.29c-7.32 0-14.44 3.79-18.35 10.57-5.83 10.1-2.36 23.06 7.74 28.89s23.06 2.36 28.89-7.74c5.83-10.1 2.36-23.06-7.74-28.89a21.04 21.04 0 0 0-10.54-2.83zM246.26 415.44c-2.76 0-5-2.24-5-5v-62.69c0-2.76 2.24-5 5-5s5 2.24 5 5v62.69c0 2.76-2.24 5-5 5z" fill="#000000" data-original="#000000" opacity="1"></path><path d="M246.26 467.74c-17.18 0-31.15-13.97-31.15-31.15s13.97-31.15 31.15-31.15 31.15 13.97 31.15 31.15-13.97 31.15-31.15 31.15zm0-52.3c-11.66 0-21.15 9.49-21.15 21.15s9.49 21.15 21.15 21.15 21.15-9.49 21.15-21.15-9.49-21.15-21.15-21.15zM123.82 344.75c-1.73 0-3.41-.9-4.33-2.5-.45-.79-.67-1.65-.67-2.49 0-1.73.9-3.41 2.5-4.34l34.42-19.87a5.002 5.002 0 0 1 7.5 4.32c0 1.73-.9 3.41-2.5 4.34l-34.42 19.87c-.79.45-1.65.67-2.5.67z" fill="#000000" data-original="#000000" opacity="1"></path><path d="M101.22 383.98c-2.71 0-5.43-.36-8.11-1.08-8.04-2.15-14.75-7.31-18.91-14.51-4.16-7.21-5.27-15.6-3.11-23.64 2.15-8.04 7.31-14.75 14.51-18.92 14.88-8.58 33.97-3.47 42.55 11.4 8.59 14.88 3.47 33.96-11.4 42.55-4.81 2.79-10.13 4.2-15.53 4.2zm-.09-52.31c-3.59 0-7.22.91-10.54 2.83-4.89 2.83-8.39 7.39-9.85 12.84a21.04 21.04 0 0 0 2.11 16.05c2.82 4.89 7.39 8.39 12.84 9.85s11.16.71 16.05-2.11c10.1-5.83 13.57-18.79 7.74-28.89-3.91-6.77-11.03-10.57-18.35-10.57zM302.59 371.61c-1.73 0-3.41-.9-4.33-2.5l-14.28-24.73c-.45-.79-.67-1.65-.67-2.49 0-1.73.9-3.41 2.5-4.34a5.002 5.002 0 0 1 6.83 1.83l14.28 24.73c.45.79.67 1.65.67 2.49 0 1.73-.9 3.41-2.5 4.34-.79.45-1.65.67-2.5.67z" fill="#000000" data-original="#000000" opacity="1"></path><path d="M312.25 407.55c-2.11 0-4.23-.28-6.32-.84-6.26-1.68-11.49-5.69-14.73-11.3s-4.1-12.15-2.42-18.4 5.69-11.49 11.3-14.73 12.14-4.1 18.4-2.42 11.49 5.69 14.73 11.3c6.69 11.58 2.71 26.44-8.88 33.13a24.049 24.049 0 0 1-12.08 3.26zm-.06-38.53c-2.47 0-4.91.65-7.1 1.92a14.13 14.13 0 0 0-6.64 8.65c-.99 3.68-.48 7.52 1.42 10.82 3.93 6.81 12.67 9.15 19.47 5.22 6.81-3.93 9.15-12.67 5.22-19.47a14.13 14.13 0 0 0-8.65-6.64c-1.24-.33-2.48-.5-3.72-.5zM189.93 371.61c-.85 0-1.71-.22-2.5-.67-1.6-.93-2.5-2.61-2.5-4.34 0-.85.22-1.71.67-2.49l14.28-24.73a5.002 5.002 0 0 1 6.83-1.83c1.6.93 2.5 2.61 2.5 4.34 0 .85-.22 1.71-.67 2.49l-14.28 24.73c-.92 1.6-2.6 2.5-4.33 2.5z" fill="#000000" data-original="#000000" opacity="1"></path><path d="M180.27 407.55c-4.2 0-8.35-1.1-12.09-3.26-11.58-6.69-15.56-21.55-8.88-33.13 3.24-5.61 8.47-9.62 14.73-11.3s12.79-.82 18.4 2.42 9.62 8.47 11.3 14.73.82 12.79-2.42 18.4-8.47 9.62-14.73 11.3c-2.08.56-4.2.84-6.31.84zm-7.09-11.92c6.81 3.93 15.54 1.59 19.47-5.22 1.9-3.3 2.41-7.14 1.42-10.82s-3.34-6.75-6.64-8.65-7.14-2.41-10.82-1.42-6.75 3.34-8.66 6.64c-3.92 6.8-1.58 15.54 5.23 19.47zM334.29 178.61c-1.73 0-3.41-.9-4.33-2.5-.45-.79-.67-1.65-.67-2.49 0-1.73.9-3.41 2.5-4.34l34.42-19.87a5.002 5.002 0 0 1 7.5 4.32c0 1.73-.9 3.41-2.5 4.34l-34.42 19.87c-.79.45-1.65.67-2.5.67z" fill="#000000" data-original="#000000" opacity="1"></path><path d="M391.4 171.82c-2.71 0-5.43-.36-8.11-1.07-8.04-2.15-14.75-7.31-18.92-14.51-8.59-14.88-3.47-33.96 11.4-42.55 14.88-8.59 33.96-3.47 42.55 11.4 8.59 14.88 3.47 33.96-11.4 42.55a30.923 30.923 0 0 1-15.52 4.18zm-.08-52.31c-3.59 0-7.22.91-10.54 2.83-10.1 5.83-13.57 18.79-7.74 28.89 2.83 4.89 7.39 8.39 12.84 9.86s11.16.71 16.05-2.11c10.1-5.83 13.57-18.79 7.74-28.89-3.91-6.78-11.04-10.58-18.35-10.58zM246.26 150.73c-2.76 0-5-2.24-5-5V83.04c0-2.76 2.24-5 5-5s5 2.24 5 5v62.69c0 2.76-2.24 5-5 5z" fill="#000000" data-original="#000000" opacity="1"></path><path d="M246.26 88.04c-17.18 0-31.15-13.97-31.15-31.15s13.97-31.15 31.15-31.15 31.15 13.97 31.15 31.15-13.97 31.15-31.15 31.15zm0-52.3c-11.66 0-21.15 9.49-21.15 21.15s9.49 21.15 21.15 21.15 21.15-9.49 21.15-21.15-9.49-21.15-21.15-21.15zM158.23 178.61c-.85 0-1.71-.22-2.5-.67l-34.42-19.87c-1.6-.93-2.5-2.61-2.5-4.34a5.002 5.002 0 0 1 7.5-4.32l34.42 19.87c1.6.93 2.5 2.61 2.5 4.34 0 .85-.22 1.71-.67 2.49-.92 1.6-2.6 2.5-4.33 2.5z" fill="#000000" data-original="#000000" opacity="1"></path><path d="M101.12 171.82c-5.4 0-10.72-1.42-15.52-4.19-7.21-4.16-12.36-10.88-14.51-18.92s-1.05-16.43 3.11-23.64c8.59-14.88 27.68-19.99 42.55-11.4 7.21 4.16 12.36 10.88 14.51 18.92s1.05 16.43-3.11 23.64-10.88 12.36-18.91 14.51c-2.69.73-5.42 1.08-8.12 1.08zm.08-52.31c-7.32 0-14.44 3.79-18.35 10.57-2.82 4.89-3.58 10.59-2.11 16.05 1.46 5.46 4.96 10.02 9.85 12.84s10.59 3.58 16.05 2.11a20.96 20.96 0 0 0 12.84-9.86c5.83-10.1 2.36-23.06-7.74-28.89a21.076 21.076 0 0 0-10.54-2.82zM288.3 156.6c-.85 0-1.71-.22-2.5-.67-1.6-.93-2.5-2.61-2.5-4.34 0-.85.22-1.71.67-2.49l14.28-24.73a5.002 5.002 0 0 1 6.83-1.83c1.6.93 2.5 2.61 2.5 4.34 0 .85-.22 1.71-.67 2.49l-14.28 24.73c-.92 1.6-2.6 2.5-4.33 2.5z" fill="#000000" data-original="#000000" opacity="1"></path><path d="M312.17 134.45c-4.11 0-8.28-1.04-12.09-3.24-11.58-6.69-15.56-21.55-8.88-33.13s21.55-15.56 33.13-8.88c5.61 3.24 9.62 8.47 11.3 14.73s.82 12.79-2.42 18.4c-4.48 7.77-12.65 12.12-21.04 12.12zm.07-38.5c-4.93 0-9.73 2.56-12.37 7.12-3.93 6.81-1.59 15.54 5.22 19.47s15.54 1.59 19.47-5.22c1.9-3.3 2.41-7.14 1.42-10.82s-3.34-6.75-6.64-8.66a14.287 14.287 0 0 0-7.1-1.89zM204.22 156.6c-1.73 0-3.41-.9-4.33-2.5l-14.28-24.73c-.45-.79-.67-1.65-.67-2.49 0-1.73.9-3.41 2.5-4.34a5.002 5.002 0 0 1 6.83 1.83l14.28 24.73c.45.79.67 1.65.67 2.49 0 1.73-.9 3.41-2.5 4.34-.8.45-1.66.67-2.5.67z" fill="#000000" data-original="#000000" opacity="1"></path><path d="M180.35 134.45c-8.39 0-16.56-4.35-21.05-12.12-6.69-11.58-2.7-26.44 8.88-33.13s26.44-2.71 33.13 8.88c6.69 11.58 2.7 26.44-8.88 33.13-3.8 2.19-7.97 3.24-12.08 3.24zm-.07-38.5c-2.42 0-4.86.61-7.1 1.91-6.81 3.93-9.15 12.67-5.22 19.47 3.93 6.81 12.66 9.15 19.47 5.22s9.15-12.67 5.22-19.47c-2.63-4.58-7.44-7.13-12.37-7.13z" fill="#000000" data-original="#000000" opacity="1"></path></g></svg>